<svg width="20" height="21" viewBox="0 0 20 21" fill="none" xmlns="http://www.w3.org/2000/svg">
<circle cx="9.5" cy="10.5" r="9.5" fill="#E4E4E4"/>
<path d="M10.5938 13.5469C10.5938 14.1823 10.3698 14.7292 9.92188 15.1875C9.26562 15.8333 8.33854 16.1562 7.14062 16.1562C6.11979 16.1562 5.20833 15.8906 4.40625 15.3594C4.40625 15.5781 4.39583 15.7292 4.375 15.8125C4.33333 15.9583 4.1875 16.0312 3.9375 16.0312V12.7969H4.40625C4.58333 14.724 5.46875 15.6979 7.0625 15.7188C7.46875 15.7188 7.83854 15.6458 8.17188 15.5C8.88021 15.1771 9.23438 14.651 9.23438 13.9219C9.23438 13.6406 9.16667 13.3802 9.03125 13.1406C8.78125 12.7135 8.1875 12.2917 7.25 11.875C6.23958 11.4375 5.64583 11.1719 5.46875 11.0781C4.48958 10.526 4 9.8125 4 8.9375C4 8.35417 4.20833 7.84375 4.625 7.40625C5.25 6.78125 6.125 6.46875 7.25 6.46875C8.17708 6.46875 9.01042 6.67188 9.75 7.07812C9.75 6.95312 9.76042 6.85417 9.78125 6.78125C9.82292 6.625 9.96875 6.54688 10.2188 6.54688V9.28125H9.75C9.76042 8.69792 9.61458 8.20312 9.3125 7.79688C8.85417 7.20312 8.1875 6.90625 7.3125 6.90625C6.95833 6.90625 6.63542 6.96354 6.34375 7.07812C5.66667 7.34896 5.32812 7.83333 5.32812 8.53125C5.32812 8.79167 5.39062 9.03646 5.51562 9.26562C5.75521 9.68229 6.33854 10.0885 7.26562 10.4844C8.28646 10.9323 8.89583 11.2083 9.09375 11.3125C10.0938 11.875 10.5938 12.6198 10.5938 13.5469Z" fill="black"/>
<path d="M8.59375 14H4.29688V13.5938H5.78125V5.03125H4.9375C4.13542 5.09375 3.56771 5.63542 3.23438 6.65625L2.98438 7.70312H2.54688L2.625 4.625H10.3438L10.4219 7.70312H9.98438L9.73438 6.65625C9.72396 6.63542 9.71875 6.60417 9.71875 6.5625C9.4375 5.54167 8.875 5.03125 8.03125 5.03125H7.125V13.5938H8.1875C8.23958 13.5938 8.29167 13.599 8.34375 13.6094C8.51042 13.6406 8.59375 13.7708 8.59375 14Z" fill="black"/>
<path d="M13.5469 5.46875C14.6094 5.46875 15.5469 5.77604 16.3594 6.39062C17.5573 7.28646 18.1562 8.59375 18.1562 10.3125C18.1562 11.7812 17.6615 12.9792 16.6719 13.9062C15.7865 14.7396 14.7292 15.1562 13.5 15.1562C12.4062 15.1562 11.4375 14.8229 10.5938 14.1562C9.4375 13.2396 8.85938 11.9375 8.85938 10.25C8.85938 8.79167 9.34896 7.60938 10.3281 6.70312C11.224 5.88021 12.2969 5.46875 13.5469 5.46875ZM13.5469 14.7188C13.9635 14.7188 14.349 14.6406 14.7031 14.4844C15.9635 13.9323 16.5938 12.5208 16.5938 10.25C16.5833 7.375 15.5521 5.92708 13.5 5.90625C13.2083 5.90625 12.9323 5.9375 12.6719 6C11.1719 6.39583 10.4219 7.83333 10.4219 10.3125C10.4219 11.0625 10.4948 11.724 10.6406 12.2969C11.0677 13.9115 12.0365 14.7188 13.5469 14.7188Z" fill="black"/>
</svg>
